<?xml version="1.0" encoding="iso-8859-1"?>
<!-- Generator: Adobe Illustrator 19.0.0, SVG Export Plug-In . SVG Version: 6.00 Build 0)  -->
<svg version="1.1" id="Capa_1" xmlns="http://www.w3.org/2000/svg" xmlns:xlink="http://www.w3.org/1999/xlink" x="0px" y="0px"
	 viewBox="0 0 512 512" style="enable-background:new 0 0 512 512;" xml:space="preserve">
<path style="fill:#FFB123;" d="M503.381,8.62L503.381,8.62c-11.493-11.493-30.126-11.493-41.619,0l-52.198,52.198l41.619,41.619
	l52.198-52.198C514.873,38.745,514.873,20.112,503.381,8.62z"/>
<path style="fill:#FF901D;" d="M451.183,102.436l52.198-52.198c4.669-4.669,7.441-10.516,8.316-16.585
	c0.067-0.467,0.123-0.935,0.168-1.404c0.09-0.938,0.135-1.879,0.135-2.821c0-1.883-0.18-3.766-0.539-5.621
	c-0.18-0.927-0.404-1.848-0.673-2.758s-0.584-1.81-0.943-2.695c-0.898-2.214-2.076-4.341-3.535-6.326
	c-0.875-1.191-1.852-2.331-2.929-3.409l-73.007,73.007L451.183,102.436z"/>
<path style="fill:#234C60;" d="M318.183,336.277c-2.929-2.929-2.929-7.678,0-10.607l136.253-136.253
	c1.175-1.175,1.175-3.088,0-4.263l-24.66-24.66c-2.929-2.929-2.929-7.678,0-10.607s7.677-2.929,10.607,0l24.66,24.66
	c7.024,7.024,7.024,18.453,0,25.477L328.789,336.277C325.86,339.206,321.112,339.207,318.183,336.277z"/>
<path style="fill:#FFB123;" d="M51.421,380.895L0.394,506.516c-1.57,3.251,1.839,6.659,5.089,5.089l125.621-51.027l14.263-14.263
	l-79.684-79.684L51.421,380.895z"/>
<path style="fill:#FF901D;" d="M112.841,413.789l-14.263,14.263L1.287,511.003c1.065,0.96,2.646,1.351,4.197,0.602l125.621-51.027
	l14.263-14.263L112.841,413.789z"/>
<path style="fill:#FF4C4C;" d="M411.909,33.554l66.537,66.537c3.63,3.63,3.63,9.516,0,13.147L131.388,460.296l-79.684-79.684
	L398.762,33.554C402.392,29.924,408.278,29.924,411.909,33.554z"/>
<path style="fill:#F33939;" d="M478.446,100.091l-32.998-32.998c3.63,3.63,3.63,9.516,0,13.147L98.39,427.297l32.998,32.998
	l347.058-347.058C482.076,109.608,482.076,103.722,478.446,100.091z"/>
<rect x="339.599" y="89.042" transform="matrix(0.7071 0.7071 -0.7071 0.7071 198.0372 -245.9808)" style="fill:#FFB123;" width="112.689" height="54.039"/>
<rect x="396.086" y="112.442" transform="matrix(0.7071 0.7071 -0.7071 0.7071 221.4371 -255.6723)" style="fill:#FF901D;" width="46.514" height="54.039"/>
<g>
</g>
<g>
</g>
<g>
</g>
<g>
</g>
<g>
</g>
<g>
</g>
<g>
</g>
<g>
</g>
<g>
</g>
<g>
</g>
<g>
</g>
<g>
</g>
<g>
</g>
<g>
</g>
<g>
</g>
</svg>
